<?xml version="1.0"?>
<svg xmlns="http://www.w3.org/2000/svg" height="512px" viewBox="0 -31 512.00205 512" width="512px"><g transform="matrix(0.940727 0 0 0.940727 15.1739 30.7113)"><path d="m493 159.582031h-2.800781v-9.269531c0-12.535156-12.914063-18.839844-26.164063-18.839844-5.554687 0-10.507812 1.003906-14.570312 2.804688.15625-.304688 24.425781-48.96875 24.5625-49.285156 10.324218-24.140626-32.433594-42.921876-46.640625-15.460938l-55.292969 108.433594c-3.730469 6.914062-3.886719 15.460937.351562 22.195312-2.199218-1.136718-4.605468-1.769531-7.125-1.769531h-52.046874c16.585937-17.035156 70.804687-37.703125 70.804687-85.445313 0-17.054687-7.207031-32.214843-20.300781-42.691406-11.605469-9.285156-26.882813-14.398437-43.015625-14.398437-29.882813 0-61.640625 18.75-61.640625 53.496093 0 23.410157 15.207031 26.902344 24.269531 26.902344 17.632813 0 27.144531-10.898437 27.144531-21.15625 0-5.175781 1.246094-10.464844 10.46875-10.464844 9.660156 0 10.703125 6.648438 10.703125 9.507813 0 24.367187-75.457031 47.722656-75.457031 89.59375v23.234375c0 12.234375 14.066406 19 23.789062 19h85.28125c15.207032 0 24.871094-23.417969 14.378907-39.132812 2.824219 1.457031 6.070312 2.242187 9.574219 2.242187h48.554687v17.894531c0 11.1875 10.769531 19 26.1875 19s26.1875-7.816406 26.1875-19v-17.894531h2.800781c10.875 0 19-13.066406 19-24.746094-.003906-14.339843-7.992187-24.75-19.003906-24.75zm-127.761719 71.386719h-85.199219c-4.148437 0-8.554687-2.753906-8.789062-3.996094v-23.238281c0-32.59375 75.457031-53.828125 75.457031-89.59375 0-11.804687-8.042969-24.507813-25.703125-24.507813-15.710937 0-25.46875 9.757813-25.46875 25.46875 0 2.515626-4.324218 6.152344-12.144531 6.152344-5.25 0-9.269531-.875-9.269531-11.902344 0-25.003906 24.03125-38.492187 46.640625-38.492187 24.007812 0 48.316406 14.453125 48.316406 42.085937 0 48.28125-74.023437 62.148438-74.023437 90.789063v2.15625c0 4.144531 3.355468 7.503906 7.5 7.503906l62.738281-.003906c.972656.160156 3.78125 3.351563 3.78125 8.550781.003906 5.117188-2.6875 8.648438-3.835938 9.027344zm127.5-36.890625h-10.039062c-4.140625 0-7.5 3.355469-7.5 7.5v25.394531c0 1.609375-4.695313 3.996094-11.183594 3.996094s-11.183594-2.386719-11.183594-3.996094v-25.394531c0-4.144531-3.359375-7.5-7.503906-7.5h-56.054687c-5.527344 0-5.808594-5.636719-3.957032-9.027344.035156-.0625.066406-.125.097656-.1875l55.320313-108.480469c5.6875-10.996093 20.085937-2.539062 20.09375 1.035157-.113281.925781.410156-.375-42.8125 86.316406-2.488281 4.996094 1.164063 10.851563 6.710937 10.851563h20.605469c4.140625 0 7.5-3.359376 7.5-7.503907v-16.769531c0-1.316406 4.363281-3.839844 11.207031-3.839844 6.59375 0 11.160157 2.382813 11.160157 3.839844v16.769531c0 4.144531 3.359375 7.503907 7.5 7.503907h10.304687c2.089844 0 3.996094 4.644531 3.996094 9.746093 0 4.933594-2.875 9.0625-4.261719 9.746094zm-54.910156-36.460937v1.964843h-.980469zm0 0" data-original="#ff9000" class="active-path" data-old_color="#ff9000" fill="#ff9000"/><path d="m394.414062 356.214844c25.902344-24.441406 45.089844-55.253906 55.488282-89.109375 1.21875-3.957031-1.003906-8.152344-4.964844-9.371094-3.953125-1.214844-8.15625 1.007813-9.375 4.96875-9.636719 31.375-27.429688 59.941406-51.445312 82.601563-3.011719 2.84375-3.148438 7.589843-.308594 10.605468 2.847656 3.011719 7.59375 3.148438 10.605468.304688zm0 0" data-original="#ff9000" class="active-path" data-old_color="#ff9000" fill="#ff9000"/><path d="m374.386719 49.628906c2.40625-3.375 1.621093-8.058594-1.75-10.464844-56.011719-39.972656-126.261719-47.984374-187.238281-26.652343-3.910157 1.367187-5.96875 5.648437-4.601563 9.558593 1.367187 3.90625 5.648437 5.972657 9.554687 4.601563 55.789063-19.515625 121.027344-12.792969 173.570313 24.703125 3.371094 2.40625 8.058594 1.621094 10.464844-1.746094zm0 0" data-original="#ff9000" class="active-path" data-old_color="#ff9000" fill="#ff9000"/><path d="m269.296875 430.566406c-9.140625-5.238281-19.773437-6.816406-29.945313-4.433594-5.601562 1.308594-11.351562 2.210938-17.085937 2.679688-4.125.339844-7.199219 3.960938-6.859375 8.089844s3.949219 7.203125 8.089844 6.863281c6.46875-.53125 12.949218-1.550781 19.269531-3.027344 6.464844-1.507812 13.238281-.5 19.070313 2.84375 16.886718 9.679688 37.632812 9.429688 54.144531-.683593 38.449219-23.542969 34.257812-20.953126 35.832031-21.984376 23.894531-15.613281 31.164062-47.621093 16.207031-72.050781l-27.074219-44.210937c-15.320312-25.015625-48.089843-32.730469-72.90625-17.53125l-34.503906 21.128906c-15.699218 9.613281-25.15625 26.417969-25.289062 44.949219-.011719 1.632812-1.542969 2.871093-3.125 2.53125-13.101563-2.824219-25.296875-9.035157-35.265625-17.953125-14.964844-13.390625-28.085938-27.6875-38.996094-42.492188-2.457031-3.335937-7.152344-4.046875-10.488281-1.589844-3.335938 2.457032-4.046875 7.15625-1.585938 10.488282 11.519532 15.632812 25.335938 30.699218 41.066406 44.773437 11.90625 10.652344 26.464844 18.066407 42.105469 21.441407 10.878907 2.347656 21.207031-5.945313 21.289063-17.089844.097656-13.3125 6.871094-25.375 18.121094-32.261719l29.246093-17.910156 66.78125 109.058593-29.246093 17.910157c-11.832032 7.242187-26.71875 7.417969-38.851563.460937zm14.667969-134.351562c16.421875-5.28125 35.003906 1.273437 44.183594 16.269531l27.074218 44.214844c9.230469 15.070312 6.519532 34.582031-5.59375 46.75zm0 0" data-original="#ff9000" class="active-path" data-old_color="#ff9000" fill="#ff9000"/><path d="m4.300781 213.171875c10.648438 40.347656 25.835938 76.789063 45.140625 108.324219 19.308594 31.53125 44.867188 61.625 75.960938 89.449218 17.207031 15.394532 38.289062 25.972657 60.976562 30.59375 4.023438.828126 8.015625-1.761718 8.847656-5.851562.828126-4.058594-1.792968-8.019531-5.851562-8.847656-20.082031-4.089844-38.742188-13.453125-53.96875-27.074219-30.007812-26.851563-54.625-55.820313-73.167969-86.105469-18.546875-30.285156-33.15625-65.382812-43.429687-104.320312-9.625-36.472656-.742188-75.5625 23.769531-104.5625 6.742187-7.980469 10.171875-18.171875 9.660156-28.691406-.679687-13.972657 6.246094-27.152344 18.074219-34.394532l29.246094-17.90625 66.78125 109.058594-29.25 17.910156c-11.125 6.8125-24.824219 7.421875-36.652344 1.628906-9.921875-4.855468-21.847656.566407-24.730469 11.21875-4.21875 15.597657-4.273437 32.085938-.15625 47.683594 5.953125 22.5625 14.023438 43.53125 23.988281 62.328125 1.941407 3.660157 6.480469 5.054688 10.140626 3.113281 3.660156-1.9375 5.054687-6.480468 3.117187-10.140624-9.429687-17.785157-17.082031-37.675782-22.738281-59.128907-3.449219-13.0625-3.402344-26.871093.132812-39.9375.421875-1.5625 2.199219-2.375 3.648438-1.664062 16.460937 8.0625 35.558594 7.199219 51.085937-2.308594l34.507813-21.128906c24.769531-15.171875 32.875-47.84375 17.527344-72.90625l-27.070313-44.210938c-15.359375-25.078125-48.171875-32.671875-72.90625-17.527343l-34.503906 21.128906c-16.503907 10.101562-26.171875 28.464844-25.226563 47.914062.328125 6.71875-1.851562 13.210938-6.136718 18.277344-27.664063 32.738281-37.6875 76.878906-26.816407 118.078125zm152.792969-180.035156 27.074219 44.210937c9.230469 15.078125 6.511719 34.589844-5.59375 46.75l-65.660157-107.234375c16.367188-5.265625 34.972657 1.226563 44.179688 16.273438zm0 0" data-original="#ff9000" class="active-path" data-old_color="#ff9000" fill="#ff9000"/></g> </svg>
