<svg width="42" height="42" viewBox="0 0 42 42" fill="none" xmlns="http://www.w3.org/2000/svg">
<circle cx="21" cy="21" r="20.5" stroke="#00CCFF"/>
<path d="M27.4551 32.7137C22.7879 32.7076 18.3136 30.8509 15.0134 27.5507C11.7131 24.2504 9.85642 19.7761 9.85037 15.1089C9.85037 13.7142 10.4044 12.3767 11.3906 11.3905C12.3767 10.4044 13.7143 9.85033 15.1089 9.85033C15.4043 9.84808 15.6991 9.87489 15.9892 9.93035C16.2696 9.97185 16.5453 10.0408 16.8123 10.1361C17 10.202 17.1673 10.3158 17.2977 10.4661C17.428 10.6165 17.5168 10.7983 17.5553 10.9935L19.1214 17.8525C19.1637 18.0387 19.1586 18.2325 19.1067 18.4162C19.0547 18.5999 18.9576 18.7677 18.8242 18.9042C18.6756 19.0643 18.6642 19.0757 17.2581 19.8073C18.3841 22.2775 20.3597 24.2613 22.8253 25.3974C23.5684 23.9799 23.5798 23.9684 23.7398 23.8198C23.8764 23.6864 24.0442 23.5893 24.2279 23.5374C24.4116 23.4855 24.6054 23.4804 24.7916 23.5226L31.6506 25.0887C31.8395 25.1326 32.0142 25.2238 32.1582 25.3538C32.3022 25.4838 32.4108 25.6483 32.4736 25.8318C32.5701 26.1031 32.6428 26.3824 32.6908 26.6663C32.7368 26.9536 32.7598 27.2441 32.7594 27.5351C32.7383 28.9238 32.1687 30.2478 31.175 31.218C30.1812 32.1882 28.8439 32.7259 27.4551 32.7137Z" fill="#00CCFF"/>
</svg>
