<?xml version="1.0"?>
<svg xmlns="http://www.w3.org/2000/svg" xmlns:xlink="http://www.w3.org/1999/xlink" version="1.1" id="Capa_1" x="0px" y="0px" viewBox="0 0 480 480" style="enable-background:new 0 0 480 480;" xml:space="preserve" width="512px" height="512px" class=""><g transform="matrix(0.83443 0 0 0.83443 39.7367 64.5218)"><g>
	<g>
		<path d="M440,0H40C17.944,0,0,17.944,0,40v248v32c0,22.056,17.944,40,40,40h134.416l-13.088,72h-31.432    c-9.152,0-17.376,5.088-21.472,13.264c-3.744,7.496-3.352,16.224,1.048,23.352c4.4,7.128,12.04,11.384,20.416,11.384h220.216    c8.376,0,16.008-4.256,20.416-11.384s4.8-15.856,1.048-23.352c-4.08-8.176-12.304-13.264-21.456-13.264H318.68l-13.088-72H440    c22.056,0,40-17.944,40-40v-32V40C480,17.944,462.056,0,440,0z M312,448h38.112c3.048,0,5.792,1.696,7.16,4.424    c1.8,3.6,0.352,6.64-0.344,7.784c-0.72,1.136-2.792,3.792-6.816,3.792H129.888c-4.024,0-6.104-2.656-6.808-3.8    c-0.704-1.144-2.152-4.176-0.344-7.784c1.36-2.72,4.104-4.416,7.152-4.416H168h64c4.416,0,8-3.576,8-8s-3.584-8-8-8h-54.416    l13.088-72h98.648l13.096,72H280c-4.416,0-8,3.576-8,8s3.584,8,8,8H312z M464,320c0,13.232-10.768,24-24,24H296H184H40    c-13.232,0-24-10.768-24-24v-24h448V320z M464,280H16V40c0-13.232,10.768-24,24-24h400c13.232,0,24,10.768,24,24V280z" data-original="#ff9000" class="active-path" data-old_color="#ff9000" fill="#ff9000"/>
	</g>
</g><g>
	<g>
		<path d="M256,312h-32c-4.416,0-8,3.576-8,8s3.584,8,8,8h32c4.416,0,8-3.576,8-8S260.416,312,256,312z" data-original="#ff9000" class="active-path" data-old_color="#ff9000" fill="#ff9000"/>
	</g>
</g><g>
	<g>
		<path d="M235.576,128.84L175.76,98.936C176,96.632,176,96.312,176,96c0-31.4-17.568-56-40-56S96,64.6,96,96    c0,0.312,0,0.632,0.24,2.936L36.424,128.84C33.712,130.2,32,132.968,32,136v16c0,4.424,3.584,8,8,8h65.752l5.048,20.184    l-34.92,20.952C73.472,202.584,72,205.184,72,208v8c0,4.424,3.584,8,8,8h31.728c3.408,10.632,11.776,24,24.296,24    c12.48,0,20.84-13.376,24.24-24H192c4.416,0,8-3.576,8-8v-8c0-2.816-1.472-5.416-3.88-6.856l-34.92-20.952L166.248,160H232    c4.416,0,8-3.576,8-8v-16C240,132.968,238.288,130.2,235.576,128.84z M224,144h-64c-3.672,0-6.872,2.496-7.76,6.064l-8,32    c-0.848,3.416,0.624,6.984,3.648,8.8L176.448,208H153.92c-4.048,0-7.48,3.192-7.96,7.216c-0.936,7.72-7.248,16.784-9.984,16.784    c-2.68,0-9-9.064-9.976-17.136c-0.56-3.936-3.936-6.864-7.92-6.864H95.552l28.568-17.144c3.016-1.816,4.496-5.384,3.648-8.8l-8-32    c-0.896-3.56-4.096-6.056-7.768-6.056H48v-3.056L97.888,116l0.952,5.712c0.712,4.28,4.696,7.208,9.008,6.608    c4.304-0.608,7.328-4.536,6.824-8.848C112.368,99.68,112.024,96.2,112,96c0-21.68,10.992-40,24-40s24,18.32,24.008,39.632    c-0.04,0.568-0.376,4.048-2.688,23.832c-0.504,4.312,2.52,8.24,6.824,8.848c4.328,0.624,8.296-2.328,9.008-6.608l0.952-5.712    L224,140.944V144z" data-original="#ff9000" class="active-path" data-old_color="#ff9000" fill="#ff9000"/>
	</g>
</g><g>
	<g>
		<path d="M144,88h-16c-4.416,0-8,3.576-8,8s3.584,8,8,8h16c4.416,0,8-3.576,8-8S148.416,88,144,88z" data-original="#ff9000" class="active-path" data-old_color="#ff9000" fill="#ff9000"/>
	</g>
</g><g>
	<g>
		<path d="M340,32c-33.088,0-60,26.912-60,60s26.912,60,60,60s60-26.912,60-60S373.088,32,340,32z M340,136    c-24.264,0-44-19.744-44-44s19.736-44,44-44c24.264,0,44,19.744,44,44S364.264,136,340,136z" data-original="#ff9000" class="active-path" data-old_color="#ff9000" fill="#ff9000"/>
	</g>
</g><g>
	<g>
		<path d="M352,88h-8v-8c0-4.424-3.584-8-8-8c-4.416,0-8,3.576-8,8v16c0,4.424,3.584,8,8,8h16c4.416,0,8-3.576,8-8    S356.416,88,352,88z" data-original="#ff9000" class="active-path" data-old_color="#ff9000" fill="#ff9000"/>
	</g>
</g><g>
	<g>
		<path d="M336,168h-80c-4.416,0-8,3.576-8,8s3.584,8,8,8h80c4.416,0,8-3.576,8-8S340.416,168,336,168z" data-original="#ff9000" class="active-path" data-old_color="#ff9000" fill="#ff9000"/>
	</g>
</g><g>
	<g>
		<path d="M424,168h-56c-4.416,0-8,3.576-8,8s3.584,8,8,8h56c4.416,0,8-3.576,8-8S428.416,168,424,168z" data-original="#ff9000" class="active-path" data-old_color="#ff9000" fill="#ff9000"/>
	</g>
</g><g>
	<g>
		<path d="M336,232h-80c-4.416,0-8,3.576-8,8s3.584,8,8,8h80c4.416,0,8-3.576,8-8S340.416,232,336,232z" data-original="#ff9000" class="active-path" data-old_color="#ff9000" fill="#ff9000"/>
	</g>
</g><g>
	<g>
		<path d="M424,232h-56c-4.416,0-8,3.576-8,8s3.584,8,8,8h56c4.416,0,8-3.576,8-8S428.416,232,424,232z" data-original="#ff9000" class="active-path" data-old_color="#ff9000" fill="#ff9000"/>
	</g>
</g><g>
	<g>
		<path d="M280,200h-24c-4.416,0-8,3.576-8,8s3.584,8,8,8h24c4.416,0,8-3.576,8-8S284.416,200,280,200z" data-original="#ff9000" class="active-path" data-old_color="#ff9000" fill="#ff9000"/>
	</g>
</g><g>
	<g>
		<path d="M424,200H312c-4.416,0-8,3.576-8,8s3.584,8,8,8h112c4.416,0,8-3.576,8-8S428.416,200,424,200z" data-original="#ff9000" class="active-path" data-old_color="#ff9000" fill="#ff9000"/>
	</g>
</g></g> </svg>
